<?xml version="1.0" standalone="no"?>
<!DOCTYPE svg PUBLIC "-//W3C//DTD SVG 20010904//EN"
 "http://www.w3.org/TR/2001/REC-SVG-20010904/DTD/svg10.dtd">
<svg version="1.0" xmlns="http://www.w3.org/2000/svg"
 width="1024.000000pt" height="1024.000000pt" viewBox="0 0 1024.000000 1024.000000"
 preserveAspectRatio="xMidYMid meet">

<g transform="translate(0.000000,1024.000000) scale(0.100000,-0.100000)"
fill="#000000" stroke="none">
<path d="M2093 5938 l-583 -583 0 -237 c0 -184 3 -238 13 -238 6 0 296 284
642 632 l630 633 269 3 c149 2 285 1 303 -3 l33 -6 0 -347 0 -347 -705 -705
c-388 -388 -705 -708 -705 -712 0 -5 105 -8 234 -8 l234 0 471 478 471 477 0
-236 0 -236 -177 -175 c-98 -96 -204 -199 -235 -228 -32 -29 -58 -59 -58 -66
0 -11 43 -14 228 -14 l227 0 178 173 178 172 0 1075 -1 1075 -532 3 -532 2
-583 -582z"/>
<path d="M4322 5948 l3 -573 120 0 120 0 0 357 c0 196 3 354 6 350 4 -4 120
-160 259 -347 139 -187 259 -346 268 -352 18 -15 199 -18 220 -4 10 6 13 120
13 566 -1 307 -4 562 -9 567 -5 5 -60 7 -123 6 l-114 -3 2 -357 c1 -197 1
-358 0 -358 -3 0 -14 14 -297 395 -122 165 -229 306 -238 313 -10 8 -53 12
-124 12 l-108 0 2 -572z"/>
<path d="M5577 6513 c-4 -3 -7 -260 -7 -569 l0 -564 23 -5 c12 -3 189 -4 392
-3 l370 3 3 99 c2 73 -1 102 -10 108 -7 4 -129 8 -271 8 l-258 0 3 128 3 127
220 2 c120 1 225 5 232 7 9 4 13 33 13 106 l0 100 -235 0 -235 0 0 120 0 120
270 -6 271 -7 -3 114 -3 114 -386 3 c-212 1 -388 -1 -392 -5z"/>
<path d="M6540 6509 c0 -5 88 -133 195 -283 107 -151 195 -275 195 -278 0 -2
-90 -130 -199 -283 -135 -189 -196 -282 -188 -287 7 -4 69 -8 140 -8 109 0
129 3 145 18 9 10 67 93 127 185 61 91 113 167 116 167 4 0 64 -83 135 -185
l128 -185 127 0 c128 0 159 4 159 21 0 5 -78 119 -173 252 -95 133 -183 257
-195 274 l-23 33 196 270 c108 149 199 278 202 286 5 12 -15 14 -143 12 l-148
-3 -120 -182 c-67 -100 -124 -182 -128 -183 -4 0 -58 75 -119 168 -61 92 -118
175 -127 185 -13 15 -34 17 -159 17 -94 0 -143 -4 -143 -11z"/>
<path d="M7766 6498 c-8 -30 -8 -172 0 -192 5 -14 30 -16 170 -16 163 0 164 0
164 -22 0 -13 0 -211 0 -441 0 -275 3 -424 10 -437 10 -18 21 -20 115 -20 57
0 110 3 119 6 14 5 16 55 16 460 l0 454 173 2 172 3 -1 110 -1 110 -465 3
-466 2 -6 -22z"/>
<path d="M2830 5753 c-19 -2 -55 -6 -79 -9 l-43 -6 33 -35 34 -35 -465 -462
c-256 -255 -540 -539 -632 -633 l-168 -169 0 -182 c0 -100 3 -182 8 -182 4 0
329 322 722 715 l715 715 32 -32 33 -32 -6 164 c-3 91 -7 171 -10 178 -3 12
-83 14 -174 5z"/>
<path d="M4327 5134 c-4 -4 -7 -254 -7 -555 0 -489 2 -547 16 -553 20 -8 662
-8 692 0 21 6 22 11 22 115 l0 109 -245 0 -245 0 -2 443 -3 442 -111 3 c-60 1
-113 -1 -117 -4z"/>
<path d="M5220 5118 c-4 -689 0 -1082 12 -1089 15 -9 688 -12 712 -3 24 9 24
209 0 218 -9 3 -121 6 -250 6 l-234 0 0 115 0 115 199 0 c110 0 206 3 215 6
13 5 16 23 16 89 0 46 -3 90 -6 99 -5 14 -34 16 -215 16 l-209 0 0 114 0 113
81 6 c45 3 141 3 213 0 73 -3 149 -3 169 1 l37 7 0 98 c0 81 -3 100 -16 105
-9 3 -175 6 -370 6 l-354 0 0 -22z"/>
<path d="M6113 5112 c12 -57 386 -1075 399 -1083 22 -14 244 -11 256 4 5 6 26
55 45 107 20 52 78 210 130 350 163 438 225 604 232 628 l6 22 -129 0 -130 0
-50 -147 c-27 -82 -90 -266 -138 -410 -49 -145 -91 -263 -94 -263 -3 0 -66
183 -140 408 l-135 407 -129 3 -129 3 6 -29z"/>
<path d="M7325 5128 c-3 -7 -4 -258 -3 -558 l3 -545 345 -3 c190 -1 355 0 368
3 21 5 22 10 22 115 l0 110 -244 0 c-213 0 -245 2 -250 16 -9 23 -7 187 2 201
6 9 64 13 212 15 l205 3 0 100 0 100 -210 5 -210 5 -2 112 -1 112 45 7 c24 3
115 3 202 -1 86 -4 179 -4 204 0 l48 7 -3 102 -3 101 -363 3 c-285 2 -364 0
-367 -10z"/>
<path d="M8260 4586 c0 -496 2 -554 16 -560 9 -3 166 -6 349 -6 l333 0 5 28
c5 24 4 114 -1 180 l-2 22 -235 0 -235 0 0 445 0 445 -115 0 -115 0 0 -554z"/>
<path d="M1796 3635 c-128 -49 -194 -194 -153 -336 55 -186 289 -251 427 -118
48 46 50 63 10 84 -39 20 -53 19 -76 -6 -46 -51 -109 -62 -173 -30 -69 36
-104 123 -82 204 33 117 151 152 240 72 l37 -34 42 19 c23 11 42 25 42 33 0
24 -39 65 -87 94 -56 33 -166 41 -227 18z"/>
<path d="M2511 3639 c-118 -35 -206 -171 -187 -292 30 -192 222 -292 395 -206
87 44 135 113 147 212 23 193 -161 341 -355 286z m171 -118 c149 -95 55 -339
-117 -307 -43 8 -94 50 -111 93 -18 42 -18 117 0 151 16 30 63 77 86 85 41 15
98 6 142 -22z"/>
<path d="M5895 3638 c-58 -21 -108 -63 -139 -118 -28 -50 -31 -63 -31 -140 0
-76 3 -91 30 -138 50 -92 141 -138 251 -129 72 5 140 39 173 86 29 40 27 48
-20 71 l-40 21 -21 -26 c-64 -82 -196 -67 -242 29 -21 45 -21 132 2 176 33 66
117 99 175 69 12 -6 36 -25 53 -41 l32 -30 41 21 c48 25 50 38 14 82 -57 67
-188 99 -278 67z"/>
<path d="M8340 3641 c-116 -37 -183 -133 -183 -263 0 -153 112 -268 260 -268
139 1 230 88 241 231 l4 66 -120 1 -120 1 -6 -35 c-4 -19 -4 -39 -1 -44 3 -6
33 -10 66 -10 55 0 59 -2 59 -22 -1 -74 -119 -114 -190 -65 -50 34 -70 68 -77
128 -11 112 54 194 149 186 41 -3 61 -12 113 -51 8 -6 29 -3 59 8 l47 18 -19
31 c-10 18 -40 45 -67 62 -40 25 -60 30 -119 32 -39 1 -82 -1 -96 -6z"/>
<path d="M3116 3632 c-4 -7 -9 -380 -7 -490 1 -21 5 -23 49 -20 l47 3 3 158
c1 86 6 157 10 157 4 0 16 -13 27 -30 11 -16 62 -88 114 -160 l94 -130 49 0
48 0 0 261 0 260 -52 -3 -53 -3 -5 -157 -5 -156 -113 159 -114 159 -43 0 c-24
0 -46 -4 -49 -8z"/>
<path d="M3777 3633 c-4 -3 -7 -26 -7 -50 l0 -43 80 0 80 0 2 -207 3 -208 50
0 50 0 3 208 2 207 75 0 75 0 0 50 0 50 -203 0 c-112 0 -207 -3 -210 -7z"/>
<path d="M4422 3383 l3 -258 50 0 50 0 3 88 3 88 47 -3 c47 -3 47 -3 85 -73
53 -98 61 -105 119 -105 32 0 48 4 48 13 0 6 -23 50 -50 96 -28 46 -49 84 -48
85 46 28 61 43 78 76 42 83 11 187 -70 228 -39 20 -59 22 -182 22 l-138 0 2
-257z m278 137 c11 -11 20 -33 20 -50 0 -52 -29 -70 -115 -70 l-75 0 0 70 0
70 75 0 c62 0 79 -4 95 -20z"/>
<path d="M5243 3628 c-16 -25 -193 -481 -193 -497 0 -7 19 -11 51 -11 l50 0
24 55 25 55 104 0 103 0 19 -52 19 -53 53 -3 c42 -2 52 0 52 13 0 9 -44 126
-97 260 l-96 245 -53 0 c-31 0 -56 -5 -61 -12z m94 -215 l31 -78 -60 -3 c-33
-2 -62 -1 -64 1 -6 6 48 157 56 157 4 0 21 -35 37 -77z"/>
<path d="M6427 3634 c-4 -4 -7 -27 -7 -51 l0 -43 80 0 80 0 0 -210 0 -210 50
0 c40 0 50 3 52 18 0 9 2 91 4 182 1 91 2 177 3 193 1 27 1 27 77 27 l75 0 -3
48 -3 47 -201 3 c-110 1 -203 -1 -207 -4z"/>
<path d="M7070 3381 l0 -261 55 0 55 0 -2 258 -3 257 -52 3 -53 3 0 -260z"/>
<path d="M7460 3380 l0 -261 53 3 52 3 5 160 5 160 34 -50 c19 -27 72 -101
118 -163 l84 -113 47 3 47 3 0 255 0 255 -50 0 -50 0 -1 -153 c-1 -84 -4 -155
-6 -157 -2 -3 -56 66 -119 153 l-114 157 -53 3 -52 3 0 -261z"/>
</g>
</svg>
